<svg width="520" height="562" viewBox="0 0 520 562" fill="none" xmlns="http://www.w3.org/2000/svg">
<path opacity="0.5" fill-rule="evenodd" clip-rule="evenodd" d="M-163.927 494.199L-192.56 445.468L-164.05 397.668L-106.766 398.365L-78.133 447.096L-106.643 494.896L-163.927 494.199ZM-99.317 507.601L-171.397 506.725L-207.427 445.406L-171.376 384.963L-105.624 385.762L-74.8624 334.187L-106.697 280.007L-73.3946 224.171L-104.772 170.769L-168.332 169.997L-204 109.292L-168.31 49.4554L-98.8196 50.3003L-69.3837 0.948168L1.97391 1.81572L37.6421 62.52L5.23969 116.846L34.1401 166.032L95.8138 166.782L131.482 227.486L95.7926 287.323L33.1434 286.561L2.7155 337.577L30.7179 385.234L91.0133 385.967L123.56 331.4L194.917 332.268L226.753 386.45L290.225 387.222L325.893 447.926L295.047 499.642L326.812 553.703L380.212 554.352L412.757 499.788L484.114 500.655L519.783 561.359L487.592 615.33L519.782 670.114L484.092 729.951L412.735 729.083L380.899 674.902L317.108 674.126L283.477 616.889L228.087 616.216L197.03 668.285L229.763 723.994L197.975 777.29L231.878 834.989L196.188 894.826L124.83 893.958L91.6859 837.549L25.1002 836.739L-10.568 776.035L25.1214 716.198L90.1909 716.989L121.25 664.916L88.5167 609.208L120.92 554.881L92.5086 506.527L25.9213 505.717L-5.91449 451.536L-65.4452 450.812L-99.317 507.601ZM-62.4855 108.026L-4.8217 108.727L22.7753 62.4577L-5.49677 14.3411L-62.0577 13.6534L-90.2063 60.8473L-62.4855 108.026ZM-6.41223 122.255L21.3085 169.433L-6.84009 216.627L-63.401 215.94L-91.673 167.823L-64.0761 121.554L-6.41223 122.255ZM226.949 399.068L198.798 446.268L227.067 494.379L282.878 495.057L311.026 447.864L282.754 399.747L226.949 399.068ZM216.148 502.302L188.374 548.868L131.813 548.18L103.541 500.063L131.69 452.869L187.501 453.548L216.148 502.302ZM186.814 440.094L131.009 439.416L102.737 391.299L130.886 344.105L187.447 344.793L215.341 392.266L186.814 440.094ZM420.519 621.253L392.152 668.813L420.205 716.558L476.766 717.246L504.915 670.052L476.643 621.935L420.519 621.253ZM380.703 662.283L324.578 661.601L296.306 613.484L324.455 566.29L381.016 566.978L409.07 614.723L380.703 662.283ZM-65.026 438.201L-93.298 390.084L-65.1494 342.89L-8.58853 343.578L19.6835 391.695L-8.46509 438.888L-65.026 438.201ZM5.11989 445.075L33.3919 493.192L89.9528 493.88L118.101 446.686L89.8294 398.569L33.2685 397.881L5.11989 445.075ZM131.656 657.387L103.384 609.27L131.532 562.076L188.093 562.764L216.365 610.881L188.217 658.074L131.656 657.387ZM4.29885 776.097L32.5709 824.214L89.1318 824.902L117.28 777.708L89.0084 729.591L32.4475 728.904L4.29885 776.097ZM-63.5584 328.186L-91.8304 280.069L-63.6818 232.875L-7.12094 233.563L21.1511 281.679L-6.99749 328.873L-63.5584 328.186ZM-189.133 109.355L-160.861 157.471L-104.3 158.159L-76.1514 110.965L-104.423 62.8483L-160.984 62.1607L-189.133 109.355ZM229.273 603.614L201.001 555.497L229.149 508.303L285.71 508.991L313.982 557.108L285.834 604.302L229.273 603.614ZM101.915 722.321L130.187 770.438L186.748 771.125L214.896 723.932L186.624 675.815L130.063 675.127L101.915 722.321ZM420.206 607.803L391.934 559.687L420.083 512.493L476.644 513.18L504.916 561.297L476.767 608.491L420.206 607.803ZM132.301 881.433L104.029 833.316L132.178 786.122L188.739 786.81L217.011 834.927L188.862 882.121L132.301 881.433ZM31.9057 273.93L3.63361 225.813L31.7822 178.619L88.3431 179.307L116.615 227.424L88.4666 274.618L31.9057 273.93Z" fill="url(#paint0_linear_200_9882)"/>
<defs>
<linearGradient id="paint0_linear_200_9882" x1="-459.344" y1="33.3847" x2="375.154" y2="1015.35" gradientUnits="userSpaceOnUse">
<stop stop-color="white" stop-opacity="0.6"/>
<stop offset="1" stop-color="white" stop-opacity="0.17"/>
</linearGradient>
</defs>
</svg>
