<svg width="28" height="27" viewBox="0 0 28 27" fill="none" xmlns="http://www.w3.org/2000/svg">
<g id="icon">
<path id="Union" fill-rule="evenodd" clip-rule="evenodd" d="M15.3035 4.30285C15.6885 3.91791 16.3126 3.91793 16.6975 4.30289L24.6786 12.2845C24.685 12.2905 24.6913 12.2966 24.6975 12.3029C25.0824 12.6878 25.0824 13.3119 24.6975 13.6969L16.6975 21.6969C16.3125 22.0818 15.6884 22.0818 15.3035 21.6969C14.9185 21.3119 14.9185 20.6878 15.3035 20.3029L21.6208 13.9856H3.99987C3.45548 13.9856 3.01416 13.5443 3.01416 12.9999C3.01416 12.4555 3.45548 12.0142 3.99987 12.0142H21.6204L15.3035 5.69686C14.9185 5.3119 14.9185 4.68778 15.3035 4.30285Z" fill="white"/>
</g>
</svg>
