<svg width="20" height="20" viewBox="0 0 20 20" fill="none" xmlns="http://www.w3.org/2000/svg">
<g id="calendar (4) 1">
<path id="Vector" d="M17.5 8.125H2.5C2.155 8.125 1.875 7.845 1.875 7.5C1.875 7.155 2.155 6.875 2.5 6.875H17.5C17.845 6.875 18.125 7.155 18.125 7.5C18.125 7.845 17.845 8.125 17.5 8.125Z" fill="#BFBFBF"/>
<path id="Vector_2" d="M15.8333 2.70833H13.9583V2.5C13.9583 2.155 13.6783 1.875 13.3333 1.875C12.9883 1.875 12.7083 2.155 12.7083 2.5V2.70833H7.29167V2.5C7.29167 2.155 7.01167 1.875 6.66667 1.875C6.32167 1.875 6.04167 2.155 6.04167 2.5V2.70833H4.16667C2.9025 2.70833 1.875 3.73583 1.875 5V15.8333C1.875 17.0975 2.9025 18.125 4.16667 18.125H15.8333C17.0975 18.125 18.125 17.0975 18.125 15.8333V5C18.125 3.73583 17.0975 2.70833 15.8333 2.70833ZM16.875 15.8333C16.875 16.4075 16.4075 16.875 15.8333 16.875H4.16667C3.5925 16.875 3.125 16.4075 3.125 15.8333V5C3.125 4.42583 3.5925 3.95833 4.16667 3.95833H6.04167V4.16667C6.04167 4.51167 6.32167 4.79167 6.66667 4.79167C7.01167 4.79167 7.29167 4.51167 7.29167 4.16667V3.95833H12.7083V4.16667C12.7083 4.51167 12.9883 4.79167 13.3333 4.79167C13.6783 4.79167 13.9583 4.51167 13.9583 4.16667V3.95833H15.8333C16.4075 3.95833 16.875 4.42583 16.875 5V15.8333Z" fill="#BFBFBF"/>
</g>
</svg>
