<svg width="20" height="20" viewBox="0 0 20 20" fill="none" xmlns="http://www.w3.org/2000/svg">
<g id="solar:diploma-broken">
<g id="Group">
<path id="Vector" d="M10 15.8333C11.3807 15.8333 12.5 14.714 12.5 13.3333C12.5 11.9525 11.3807 10.8333 10 10.8333C8.61929 10.8333 7.5 11.9525 7.5 13.3333C7.5 14.714 8.61929 15.8333 10 15.8333Z" stroke="#BFBFBF" stroke-width="1.2"/>
<path id="Vector_2" d="M7.59405 13.2999L6.72739 14.1666L5.49572 15.3474C5.22572 15.6066 5.09072 15.7358 5.04405 15.8458C4.99158 15.9628 4.98471 16.0951 5.02479 16.2169C5.06488 16.3387 5.14902 16.4411 5.26072 16.5041C5.36239 16.5616 5.54655 16.5791 5.91322 16.6158C6.11989 16.6358 6.22405 16.6458 6.31072 16.6766C6.40497 16.7092 6.49104 16.7618 6.56298 16.8308C6.63492 16.8999 6.69101 16.9837 6.72739 17.0766C6.75989 17.1599 6.77072 17.2591 6.79155 17.4583C6.82905 17.8099 6.84822 17.9858 6.90822 18.0833C7.04489 18.3058 7.33405 18.3933 7.59489 18.2916C7.70905 18.2458 7.84405 18.1166 8.11405 17.8583L9.99989 16.0499L11.8857 17.8583C12.1557 18.1166 12.2907 18.2458 12.4049 18.2916C12.6657 18.3933 12.9549 18.3058 13.0916 18.0833C13.1516 17.9858 13.1707 17.8099 13.2082 17.4583C13.2291 17.2591 13.2399 17.1599 13.2724 17.0766C13.3088 16.9838 13.3649 16.9 13.4369 16.8309C13.5088 16.7618 13.5948 16.7092 13.6891 16.6766C13.7766 16.6458 13.8799 16.6358 14.0866 16.6158C14.4532 16.5799 14.6374 16.5616 14.7391 16.5041C14.8507 16.4411 14.9349 16.3387 14.975 16.2169C15.0151 16.0951 15.0082 15.9628 14.9557 15.8458C14.9091 15.7358 14.7741 15.6066 14.5041 15.3474L13.2716 14.1666L12.4999 13.3941" stroke="#BFBFBF" stroke-width="1.2"/>
<path id="Vector_3" d="M14.4332 14.9966C16.0765 14.9791 16.9932 14.8758 17.6007 14.2675C18.3332 13.5358 18.3332 12.3566 18.3332 9.99996L18.2698 4.16663C18.1898 3.35413 18.009 2.80746 17.6007 2.39913C16.869 1.66663 15.6898 1.66663 13.3332 1.66663H6.6665C4.30984 1.66663 3.13067 1.66663 2.399 2.39913C1.6665 3.13079 1.6665 4.30996 1.6665 6.66663V9.99996C1.6665 12.3566 1.6665 13.5358 2.399 14.2675C3.039 14.9083 4.02067 14.9883 5.83317 14.9983M7.49984 4.99996H12.4998M5.83317 7.91663H7.49984M14.1665 7.91663H10.4165" stroke="#BFBFBF" stroke-width="1.2" stroke-linecap="round"/>
</g>
</g>
</svg>
