<svg width="220" height="195" viewBox="0 0 220 195" fill="none" xmlns="http://www.w3.org/2000/svg">
<path opacity="0.2" fill-rule="evenodd" clip-rule="evenodd" d="M19.6212 305.807L0.34494 294.805L0.34111 272.795L19.6804 261.748L38.9566 272.75L38.9605 294.761L19.6212 305.807ZM-7.68747 299.393L-7.6929 268.171L17.9928 253.499L17.9884 227.711L-6.17265 213.921L-6.17766 185.078L-27.7396 172.772L-52.3122 186.808L-77.1538 172.629L-100.707 186.083L-100.702 214.269L-127.766 229.728L-154.836 214.278L-154.841 185.435L-179.994 171.079L-179.999 140.169L-152.935 124.71L-127.206 139.395L-103.101 125.626L-78.2596 139.804L-54.7074 126.351L-54.7116 102.359L-80.2353 87.7915L-80.2401 60.1597L-104.401 46.3696L-104.407 15.4602L-77.3425 0.00088501L-52.9124 13.9445L-28.5017 0.00088501L-1.43213 15.451L-1.42677 46.3604L-26.1063 60.4576L-26.1023 83.5883L-1.99614 97.347L18.0192 85.9141L18.0144 57.9426L45.0785 42.4833L72.1481 57.9334L72.1534 88.8428L48.466 102.373L48.4702 126.928L72.6315 140.719L72.6368 171.628L47.9562 185.726L47.9607 211.845L69.2122 223.974L92.2865 210.794L92.2818 183.656L119.346 168.197L146.416 183.647L146.42 210.362L168.353 222.88L192.925 208.845L219.995 224.295L220 255.204L197.677 267.955L197.683 298.055L170.618 313.514L143.549 298.064L143.544 270.533L119.731 256.942L94.4769 271.368L70.3168 257.578L46.9895 270.903L46.9945 299.384L19.6562 315L-7.68747 299.393ZM45.0279 262.811L26.0258 251.965L26.022 230.267L45.0872 219.377L64.0893 230.223L64.093 251.92L45.0279 262.811ZM1.85976 209.333L20.8619 220.179L39.927 209.289L39.9233 187.591L20.9212 176.745L1.85599 187.636L1.85976 209.333ZM-52.3472 177.615L-71.3493 166.77L-71.3531 145.072L-52.2879 134.182L-33.2858 145.027L-33.2821 166.725L-52.3472 177.615ZM-146.803 209.69L-127.801 220.535L-108.736 209.645L-108.74 187.947L-127.742 177.102L-146.807 187.992L-146.803 209.69ZM-53.2007 94.0488L-72.2029 83.2033L-72.2066 61.5057L-53.1414 50.6155L-34.1393 61.4611L-34.1356 83.1587L-53.2007 94.0488ZM-22.3044 166.701L-3.30225 177.547L15.7629 166.657L15.7592 144.959L-3.24297 134.114L-22.3081 145.004L-22.3044 166.701ZM94.4419 262.175L75.4398 251.329L75.436 229.632L94.5012 218.741L113.503 229.587L113.507 251.285L94.4419 262.175ZM151.581 293.476L170.583 304.321L189.649 293.431L189.645 271.734L170.643 260.888L151.578 271.778L151.581 293.476ZM144.851 262.106L125.849 251.261L125.845 229.563L144.91 218.673L163.912 229.519L163.916 251.216L144.851 262.106ZM26.5355 167.049L45.5377 177.895L64.6028 167.004L64.5991 145.307L45.5969 134.461L26.5318 145.351L26.5355 167.049ZM-27.6724 135.332L-46.6745 124.486L-46.6783 102.789L-27.6131 91.8987L-8.61102 102.744L-8.60727 124.442L-27.6724 135.332ZM-122.128 167.406L-103.125 178.252L-84.0603 167.362L-84.0641 145.664L-103.066 134.819L-122.131 145.709L-122.128 167.406ZM-28.5259 52.627L-47.528 41.7814L-47.5318 20.0838L-28.4667 9.1936L-9.46454 20.0392L-9.46078 41.7368L-28.5259 52.627ZM-96.3689 41.7814L-77.3668 52.627L-58.3016 41.7368L-58.3054 20.0392L-77.3075 9.1936L-96.3727 20.0838L-96.3689 41.7814ZM-152.959 177.336L-171.962 166.49L-171.965 144.793L-152.9 133.903L-133.898 144.748L-133.894 166.446L-152.959 177.336ZM2.36952 125.766L21.3716 136.611L40.4368 125.721L40.433 104.024L21.4309 93.178L2.36575 104.068L2.36952 125.766ZM45.0543 95.1094L26.0521 84.2638L26.0484 62.5662L45.1135 51.676L64.1157 62.5216L64.1194 84.2192L45.0543 95.1094ZM100.32 209.978L119.322 220.823L138.387 209.933L138.383 188.235L119.381 177.39L100.316 188.28L100.32 209.978ZM192.901 261.471L173.899 250.625L173.895 228.928L192.96 218.037L211.962 228.883L211.966 250.581L192.901 261.471Z" fill="url(#paint0_linear_166_4753)"/>
<defs>
<linearGradient id="paint0_linear_166_4753" x1="203.333" y1="424.121" x2="-218.982" y2="46.7803" gradientUnits="userSpaceOnUse">
<stop stop-color="white" stop-opacity="0.6"/>
<stop offset="1" stop-color="white" stop-opacity="0.17"/>
</linearGradient>
</defs>
</svg>
