<svg width="220" height="195" viewBox="0 0 220 195" fill="none" xmlns="http://www.w3.org/2000/svg">
<path opacity="0.2" fill-rule="evenodd" clip-rule="evenodd" d="M200.379 305.807L219.655 294.805L219.659 272.795L200.32 261.748L181.043 272.75L181.04 294.761L200.379 305.807ZM227.687 299.393L227.693 268.171L202.007 253.499L202.012 227.711L226.173 213.921L226.178 185.078L247.74 172.772L272.312 186.808L297.153 172.63L320.706 186.083L320.701 214.269L347.765 229.728L374.835 214.278L374.84 185.435L399.994 171.079L399.999 140.169L372.935 124.71L347.206 139.395L323.1 125.626L298.259 139.804L274.707 126.351L274.711 102.359L300.235 87.7915L300.24 60.1597L324.401 46.3696L324.407 15.4602L297.342 0.00088501L272.912 13.9445L248.502 0.00088501L221.432 15.451L221.427 46.3604L246.106 60.4576L246.102 83.5883L221.996 97.347L201.981 85.9141L201.986 57.9426L174.922 42.4833L147.852 57.9334L147.847 88.8428L171.534 102.373L171.53 126.928L147.369 140.719L147.363 171.628L172.044 185.726L172.039 211.845L150.787 223.974L127.713 210.794L127.718 183.656L100.654 168.197L73.5844 183.647L73.5798 210.362L51.647 222.88L27.0749 208.845L0.00536371 224.295L0 255.204L22.3226 267.955L22.3173 298.055L49.3815 313.514L76.451 298.064L76.4558 270.533L100.268 256.942L125.522 271.368L149.683 257.578L173.01 270.903L173.006 299.384L200.344 315L227.687 299.393ZM174.972 262.811L193.974 251.965L193.978 230.267L174.913 219.377L155.911 230.223L155.907 251.92L174.972 262.811ZM218.14 209.333L199.138 220.179L180.073 209.289L180.077 187.591L199.079 176.745L218.144 187.636L218.14 209.333ZM272.347 177.615L291.349 166.77L291.353 145.072L272.288 134.182L253.286 145.027L253.282 166.725L272.347 177.615ZM366.802 209.69L347.8 220.535L328.735 209.645L328.739 187.947L347.741 177.102L366.806 187.992L366.802 209.69ZM273.201 94.0488L292.203 83.2033L292.207 61.5057L273.141 50.6155L254.139 61.4611L254.135 83.1587L273.201 94.0488ZM242.304 166.701L223.302 177.547L204.237 166.657L204.241 144.959L223.243 134.114L242.308 145.004L242.304 166.701ZM125.557 262.175L144.559 251.329L144.563 229.632L125.498 218.741L106.496 229.587L106.492 251.285L125.557 262.175ZM68.4186 293.476L49.4165 304.321L30.3513 293.431L30.3551 271.734L49.3572 260.888L68.4224 271.778L68.4186 293.476ZM75.149 262.106L94.1511 251.261L94.1548 229.563L75.0897 218.673L56.0876 229.519L56.0838 251.216L75.149 262.106ZM193.465 167.049L174.462 177.895L155.397 167.004L155.401 145.307L174.403 134.461L193.468 145.351L193.465 167.049ZM247.672 135.332L266.674 124.486L266.678 102.789L247.613 91.8987L228.611 102.744L228.607 124.442L247.672 135.332ZM342.127 167.406L323.125 178.252L304.059 167.362L304.063 145.664L323.065 134.819L342.13 145.709L342.127 167.406ZM248.526 52.627L267.528 41.7814L267.532 20.0838L248.467 9.1936L229.464 20.0392L229.461 41.7368L248.526 52.627ZM316.369 41.7814L297.367 52.627L278.301 41.7368L278.305 20.0392L297.307 9.1936L316.373 20.0838L316.369 41.7814ZM372.959 177.336L391.962 166.49L391.965 144.793L372.9 133.903L353.898 144.748L353.894 166.446L372.959 177.336ZM217.63 125.766L198.628 136.611L179.563 125.721L179.567 104.024L198.569 93.178L217.634 104.068L217.63 125.766ZM174.946 95.1094L193.948 84.2638L193.952 62.5662L174.887 51.676L155.884 62.5216L155.881 84.2192L174.946 95.1094ZM119.68 209.978L100.678 220.823L81.6131 209.933L81.6168 188.235L100.619 177.39L119.684 188.28L119.68 209.978ZM27.0992 261.471L46.1013 250.625L46.1051 228.928L27.0399 218.037L8.03778 228.883L8.03401 250.581L27.0992 261.471Z" fill="url(#paint0_linear_166_4732)"/>
<defs>
<linearGradient id="paint0_linear_166_4732" x1="16.6667" y1="424.121" x2="438.982" y2="46.7803" gradientUnits="userSpaceOnUse">
<stop stop-color="white" stop-opacity="0.6"/>
<stop offset="1" stop-color="white" stop-opacity="0.17"/>
</linearGradient>
</defs>
</svg>
