<svg width="440" height="480" viewBox="0 0 440 480" fill="none" xmlns="http://www.w3.org/2000/svg">
<g filter="url(#filter0_dd_194_5971)">
<path d="M387.761 112.018L247.903 31.9464C239.389 27.068 229.728 24.4995 219.894 24.4995C210.06 24.4995 200.399 27.068 191.884 31.9464L51.9923 112.018C43.479 116.891 36.41 123.901 31.4961 132.343C26.5823 140.785 23.9969 150.361 24 160.108L24 320.285C24.004 330.031 26.5923 339.604 31.5054 348.045C36.4185 356.486 43.4837 363.497 51.9923 368.376L191.884 448.447C200.399 453.326 210.06 455.894 219.894 455.894C229.728 455.894 239.389 453.326 247.903 448.447L387.761 368.376C396.269 363.497 403.334 356.486 408.247 348.045C413.161 339.604 415.749 330.031 415.753 320.285V160.108C415.756 150.361 413.171 140.785 408.257 132.343C403.343 123.901 396.274 116.891 387.761 112.018Z" fill="url(#paint0_linear_194_5971)"/>
<path d="M245.419 36.2856L245.418 36.2848C237.661 31.8409 228.858 29.4995 219.894 29.4995C210.93 29.4995 202.126 31.8409 194.37 36.2848L194.368 36.2859L54.4763 116.357C54.4762 116.357 54.4762 116.357 54.4761 116.357C46.7214 120.796 40.2876 127.179 35.8174 134.859C31.3474 142.538 28.9972 151.246 29 160.107L29 160.108L29 320.283C29 320.284 29 320.285 29 320.285C29.004 329.145 31.3571 337.851 35.8267 345.53C40.2962 353.208 46.7262 359.592 54.4761 364.037L54.4794 364.038M245.419 36.2856L51.9923 368.376L54.4794 364.038M245.419 36.2856L385.276 116.357L387.761 112.018L385.277 116.357C393.031 120.796 399.465 127.179 403.936 134.859C408.406 142.538 410.756 151.246 410.753 160.107V160.108V320.283L245.419 36.2856ZM54.4794 364.038L194.368 444.108L194.37 444.109C202.126 448.553 210.93 450.894 219.894 450.894C228.858 450.894 237.661 448.553 245.418 444.109L245.419 444.108L385.273 364.038M54.4794 364.038H385.273M385.273 364.038C393.025 359.594 399.456 353.209 403.926 345.53C408.396 337.851 410.749 329.145 410.753 320.285L385.273 364.038Z" stroke="white" stroke-opacity="0.2" stroke-width="10"/>
</g>
<defs>
<filter id="filter0_dd_194_5971" x="0" y="0.499512" width="439.753" height="479.395" filterUnits="userSpaceOnUse" color-interpolation-filters="sRGB">
<feFlood flood-opacity="0" result="BackgroundImageFix"/>
<feColorMatrix in="SourceAlpha" type="matrix" values="0 0 0 0 0 0 0 0 0 0 0 0 0 0 0 0 0 0 127 0" result="hardAlpha"/>
<feOffset dx="-4" dy="-4"/>
<feGaussianBlur stdDeviation="10"/>
<feComposite in2="hardAlpha" operator="out"/>
<feColorMatrix type="matrix" values="0 0 0 0 0.2125 0 0 0 0 0.186717 0 0 0 0 0.175667 0 0 0 0.03 0"/>
<feBlend mode="normal" in2="BackgroundImageFix" result="effect1_dropShadow_194_5971"/>
<feColorMatrix in="SourceAlpha" type="matrix" values="0 0 0 0 0 0 0 0 0 0 0 0 0 0 0 0 0 0 127 0" result="hardAlpha"/>
<feOffset dx="4" dy="4"/>
<feGaussianBlur stdDeviation="10"/>
<feComposite in2="hardAlpha" operator="out"/>
<feColorMatrix type="matrix" values="0 0 0 0 0.2125 0 0 0 0 0.186717 0 0 0 0 0.175667 0 0 0 0.03 0"/>
<feBlend mode="normal" in2="effect1_dropShadow_194_5971" result="effect2_dropShadow_194_5971"/>
<feBlend mode="normal" in="SourceGraphic" in2="effect2_dropShadow_194_5971" result="shape"/>
</filter>
<linearGradient id="paint0_linear_194_5971" x1="415.753" y1="455.894" x2="14.7728" y2="446.208" gradientUnits="userSpaceOnUse">
<stop stop-color="#F6BE43"/>
<stop offset="1" stop-color="#FFF06A"/>
</linearGradient>
</defs>
</svg>
