<svg width="20" height="20" viewBox="0 0 20 20" fill="none" xmlns="http://www.w3.org/2000/svg">
<g id="wallet (1) 1">
<g id="Wallet">
<path id="Vector" d="M18.5565 6.47994V4.85557C18.5565 3.30807 17.2971 2.04932 15.7502 2.04932H4.78148C3.23336 2.04932 1.97461 3.30869 1.97461 4.85557V8.46807C1.97461 8.77869 2.22648 9.03057 2.53711 9.03057C2.84773 9.03057 3.09961 8.77869 3.09961 8.46807V4.85557C3.09961 3.92869 3.85398 3.17494 4.78086 3.17494H15.7502C16.6771 3.17494 17.4309 3.92869 17.4309 4.85557V6.40494H15.5465C14.1302 6.40494 12.9784 7.55744 12.9784 8.97307V9.35869C12.9784 10.7749 14.1309 11.9268 15.5465 11.9268H17.4309V13.4799C17.4309 14.4068 16.6771 15.1606 15.7502 15.1606H10.1065C9.79586 15.1606 9.54398 15.4124 9.54398 15.7231C9.54398 16.0337 9.79586 16.2856 10.1065 16.2856H15.7502C17.2977 16.2856 18.5565 15.0262 18.5565 13.4793V11.8506C18.9965 11.6868 19.3127 11.2662 19.3127 10.7699V7.55932C19.3127 7.06432 18.9965 6.64369 18.5565 6.47994ZM14.104 9.35869V8.97307C14.104 8.17744 14.7509 7.52994 15.5471 7.52994L18.1877 7.56057V10.7712C18.1877 10.7874 18.174 10.8018 18.1571 10.8018H15.5471C14.7515 10.8012 14.104 10.1543 14.104 9.35869Z" fill="#F9C74B"/>
<path id="Vector_2" d="M4.58187 9.88428C2.70625 9.88428 0.6875 10.4643 0.6875 11.7374V13.9174V14.5424V16.0974C0.6875 16.8393 1.39312 17.4205 2.67437 17.7362C3.24688 17.8762 3.90687 17.9505 4.5825 17.9505C5.25625 17.9505 5.9175 17.8768 6.49625 17.7362C7.77688 17.4212 8.4825 16.8387 8.4825 16.0974V14.5424V13.9174V11.7374C8.48125 10.4643 6.46 9.88428 4.58187 9.88428ZM7.35625 13.9105C7.33 13.9768 7.065 14.2574 6.22437 14.4605C5.25687 14.703 3.90688 14.7043 2.94 14.4593C2.08938 14.2537 1.83 13.9674 1.8125 13.918V13.0824C2.065 13.1968 2.35438 13.2949 2.6825 13.3724C3.25688 13.513 3.91375 13.5874 4.58187 13.5874C5.25313 13.5874 5.91187 13.513 6.48187 13.3737C6.81125 13.2955 7.1025 13.1968 7.35562 13.0818V13.9105H7.35625ZM4.58187 11.0099C6.30937 11.0099 7.25625 11.5249 7.35313 11.7368C7.31187 11.8155 7.03437 12.0862 6.21937 12.2793C5.24687 12.5168 3.93313 12.5193 2.94625 12.278C2.1025 12.0787 1.83812 11.7943 1.81313 11.7512V11.7462C1.8825 11.5412 2.83 11.0099 4.58187 11.0099ZM7.35687 16.0874C7.33875 16.1474 7.07937 16.4343 6.22812 16.6437C5.245 16.8818 3.9125 16.8812 2.94125 16.6443C2.08875 16.4343 1.82937 16.1474 1.81187 16.098V15.2668C2.05937 15.378 2.34563 15.4737 2.66875 15.5518C3.80188 15.8368 5.3575 15.838 6.49187 15.553C6.8175 15.4743 7.10625 15.378 7.35625 15.2662L7.35687 16.0874Z" fill="#F9C74B"/>
<path id="Vector_3" d="M8.80893 4.97681H5.58643C5.2758 4.97681 5.02393 5.22868 5.02393 5.53931C5.02393 5.84993 5.2758 6.10181 5.58643 6.10181H8.80893C9.11955 6.10181 9.37143 5.84993 9.37143 5.53931C9.37143 5.22868 9.11955 4.97681 8.80893 4.97681Z" fill="#F9C74B"/>
</g>
</g>
</svg>
