<svg width="32" height="32" viewBox="0 0 32 32" fill="none" xmlns="http://www.w3.org/2000/svg">
<g id="YouTube">
<g id="Rectangle 15" filter="url(#filter0_b_2162_535)">
<path d="M0 6.63273C0 2.96957 2.96957 0 6.63273 0H25.3673C29.0304 0 32 2.96957 32 6.63273V25.3673C32 29.0304 29.0304 32 25.3673 32H6.63273C2.96957 32 0 29.0304 0 25.3673V6.63273Z" fill="url(#paint0_linear_2162_535)"/>
</g>
<path id="Vector" d="M23.665 12.6744C23.5744 12.3512 23.3979 12.0587 23.1544 11.8278C22.9039 11.5898 22.597 11.4196 22.2625 11.3332C21.0107 11.0032 15.9953 11.0032 15.9953 11.0032C13.9045 10.9795 11.8142 11.0841 9.73618 11.3165C9.40168 11.4093 9.09531 11.5834 8.8443 11.8231C8.59766 12.0604 8.41902 12.3531 8.3257 12.6737C8.10153 13.8814 7.99261 15.1076 8.00041 16.3359C7.99241 17.563 8.10106 18.7889 8.3257 19.998C8.41702 20.3173 8.595 20.6086 8.8423 20.8439C9.0896 21.0792 9.39756 21.2492 9.73618 21.3392C11.0047 21.6685 15.9953 21.6685 15.9953 21.6685C18.0888 21.6923 20.1818 21.5877 22.2625 21.3552C22.597 21.2688 22.9039 21.0986 23.1544 20.8606C23.401 20.6253 23.5763 20.3327 23.6643 20.014C23.8943 18.8068 24.0062 17.5801 23.9983 16.3512C24.0156 15.1171 23.9039 13.8852 23.665 12.6744ZM14.4009 18.6182V14.0542L18.5737 16.3365L14.4009 18.6182Z" fill="white"/>
</g>
<defs>
<filter id="filter0_b_2162_535" x="-10" y="-10" width="52" height="52" filterUnits="userSpaceOnUse" color-interpolation-filters="sRGB">
<feFlood flood-opacity="0" result="BackgroundImageFix"/>
<feGaussianBlur in="BackgroundImageFix" stdDeviation="5"/>
<feComposite in2="SourceAlpha" operator="in" result="effect1_backgroundBlur_2162_535"/>
<feBlend mode="normal" in="SourceGraphic" in2="effect1_backgroundBlur_2162_535" result="shape"/>
</filter>
<linearGradient id="paint0_linear_2162_535" x1="1.33334" y1="-11.0853" x2="41.9712" y2="17.5089" gradientUnits="userSpaceOnUse">
<stop stop-color="white" stop-opacity="0.6"/>
<stop offset="1" stop-color="white" stop-opacity="0.17"/>
</linearGradient>
</defs>
</svg>
