<svg width="15" height="15" viewBox="0 0 15 15" fill="none" xmlns="http://www.w3.org/2000/svg">
<g id="icon">
<path id="Vector" d="M11.5459 0H3.4541C1.5498 0.00585938 0.00585938 1.5498 0 3.4541V11.5459C0.00585938 13.4502 1.5498 14.9941 3.4541 15H11.5459C13.4502 14.9941 14.9941 13.4502 15 11.5459V3.4541C14.9941 1.5498 13.4502 0.00585938 11.5459 0ZM10.5791 8.14746H8.30273C8.22949 8.14746 8.1709 8.20605 8.1709 8.2793C8.1709 8.2793 8.1709 8.2793 8.1709 8.28223V10.5615C8.1709 10.9307 7.87207 11.2324 7.5 11.2324C7.12793 11.2324 6.8291 10.9336 6.8291 10.5615V8.28223C6.8291 8.20898 6.77051 8.15039 6.69727 8.15039C6.69727 8.15039 6.69727 8.15039 6.69434 8.15039H4.41797C4.04883 8.15039 3.74707 7.85156 3.74707 7.47949C3.74707 7.11035 4.0459 6.80859 4.41797 6.80859H6.69434C6.76758 6.80859 6.82617 6.75 6.82617 6.67676C6.82617 6.67676 6.82617 6.67676 6.82617 6.67383V4.39746C6.82617 4.02832 7.125 3.72656 7.49707 3.72656C7.86914 3.72656 8.16797 4.02539 8.16797 4.39746V6.67383C8.16504 6.74707 8.22363 6.80859 8.29688 6.80859C8.2998 6.80859 8.2998 6.80859 8.30273 6.80859H10.5791C10.9482 6.80859 11.25 7.10742 11.25 7.47949C11.25 7.85156 10.9512 8.15039 10.5791 8.15039V8.14746Z" fill="#7D7781"/>
</g>
</svg>
