<svg width="14" height="14" viewBox="0 0 14 14" fill="none" xmlns="http://www.w3.org/2000/svg">
<g id="icon">
<g id="Vector">
<path d="M8.74989 7.58242C8.42724 7.58242 8.16748 7.84492 8.16748 8.16484V10.5C8.16748 10.8227 7.90498 11.0824 7.58506 11.0824H5.83508V2.33242C5.83508 1.83477 5.5179 1.38906 5.03939 1.22227L4.86713 1.16484H7.58506C7.90772 1.16484 8.16748 1.42734 8.16748 1.74727V3.49727C8.16748 3.81992 8.42724 4.07969 8.74989 4.07969C9.07255 4.07969 9.33231 3.81719 9.33231 3.49727V1.75C9.33231 0.784766 8.54755 0 7.58233 0H1.31248C1.29061 0 1.27147 0.0109375 1.24959 0.0136719C1.22225 0.0109375 1.19491 0 1.16483 0C0.522259 0 0 0.522266 0 1.16758V11.6676C0 12.1652 0.317184 12.6109 0.795693 12.7777L4.30385 13.9453C4.42416 13.9809 4.54174 14 4.66479 14C5.30736 14 5.83235 13.4777 5.83235 12.8324V12.25H7.58233C8.54755 12.25 9.33231 11.4652 9.33231 10.5V8.16758C9.33231 7.84492 9.07255 7.58242 8.74989 7.58242Z" fill="#FA3939"/>
<path d="M13.8277 5.42L11.4953 3.08758C11.3285 2.92078 11.077 2.87156 10.861 2.9618C10.6422 3.05203 10.5 3.26531 10.5 3.50047V5.25047H8.16765C7.845 5.25047 7.58523 5.51297 7.58523 5.83289C7.58523 6.15281 7.84773 6.41531 8.16765 6.41531H10.5V8.16531C10.5 8.40047 10.6422 8.61375 10.861 8.70398C11.0797 8.79422 11.3313 8.745 11.4953 8.5782L13.8277 6.24578C14.0574 6.01883 14.0574 5.64969 13.8277 5.42Z" fill="#FA3939"/>
</g>
</g>
</svg>
