<svg width="14" height="15" viewBox="0 0 14 15" fill="none" xmlns="http://www.w3.org/2000/svg">
<g id="icon">
<g id="Vector">
<path d="M7.0415 7.22457C8.03466 7.22457 8.89305 6.86715 9.59618 6.16696C10.2993 5.46384 10.6538 4.60544 10.6538 3.61229C10.6538 2.61913 10.2964 1.76073 9.59618 1.05761C8.89305 0.35449 8.03466 0 7.0415 0C6.04834 0 5.18995 0.35742 4.48683 1.05761C3.78371 1.7578 3.42629 2.61913 3.42629 3.61229C3.42629 4.60544 3.78371 5.46384 4.4839 6.16696C5.18702 6.87008 6.04834 7.22457 7.0415 7.22457Z" fill="#7D7781"/>
<path d="M13.3613 11.5345C13.3408 11.2416 13.2997 10.9222 13.2411 10.5853C13.1796 10.2455 13.1005 9.92614 13.0068 9.63317C12.9101 9.33141 12.7783 9.02966 12.6142 8.74548C12.4443 8.44665 12.2451 8.18884 12.0224 7.97498C11.788 7.75232 11.5038 7.57361 11.1728 7.44177C10.8447 7.31287 10.4785 7.24549 10.0888 7.24549C9.93647 7.24549 9.78706 7.30701 9.50288 7.49451C9.3271 7.60877 9.12203 7.7406 8.89058 7.89001C8.69429 8.01599 8.42769 8.13318 8.09957 8.23865C7.78024 8.34118 7.45211 8.39392 7.13278 8.39392C6.81344 8.39392 6.48532 8.34118 6.16599 8.23865C5.83786 8.13318 5.57126 8.01599 5.37498 7.89001C5.14646 7.74353 4.94138 7.6117 4.76267 7.49451C4.47557 7.30701 4.32908 7.24549 4.17674 7.24549C3.78709 7.24549 3.42088 7.31287 3.09276 7.44177C2.76171 7.57361 2.47753 7.75232 2.24316 7.97498C2.0205 8.18884 1.82128 8.44665 1.65136 8.74548C1.4873 9.03259 1.35547 9.33141 1.25879 9.63317C1.16504 9.92614 1.08594 10.2455 1.02441 10.5853C0.96289 10.9222 0.921875 11.2416 0.904297 11.5345C0.883789 11.8216 0.875 12.1205 0.875 12.4193C0.875 13.2015 1.12402 13.8372 1.61328 14.3031C2.10253 14.766 2.74413 15.0003 3.52342 15.0003H10.7451C11.5244 15.0003 12.166 14.766 12.6523 14.306C13.1445 13.8402 13.3935 13.2044 13.3935 12.4222C13.3935 12.1175 13.3818 11.8216 13.3613 11.5345Z" fill="#7D7781"/>
</g>
</g>
</svg>
