<svg width="174" height="572" viewBox="0 0 174 572" fill="none" xmlns="http://www.w3.org/2000/svg">
<path opacity="0.3" fill-rule="evenodd" clip-rule="evenodd" d="M44.0734 494.199L15.4401 445.468L43.9502 397.668L101.234 398.365L129.867 447.096L101.357 494.896L44.0734 494.199ZM108.683 507.601L36.6027 506.725L0.573262 445.406L36.6241 384.963L102.376 385.762L133.138 334.187L101.303 280.007L134.605 224.171L103.228 170.769L39.6684 169.997L4.00014 109.292L39.6896 49.4554L109.18 50.3003L138.616 0.948168L209.974 1.81572L245.642 62.52L213.24 116.846L242.14 166.032L303.814 166.782L339.482 227.486L303.793 287.323L241.143 286.561L210.715 337.577L238.718 385.234L299.013 385.967L331.56 331.4L402.917 332.268L434.753 386.45L498.225 387.222L533.893 447.926L503.047 499.642L534.812 553.703L588.212 554.352L620.757 499.788L692.114 500.655L727.783 561.359L695.592 615.33L727.782 670.114L692.092 729.951L620.735 729.083L588.899 674.902L525.108 674.126L491.477 616.889L436.087 616.216L405.03 668.285L437.763 723.994L405.975 777.29L439.878 834.989L404.188 894.826L332.83 893.958L299.686 837.549L233.1 836.739L197.432 776.035L233.121 716.198L298.191 716.989L329.25 664.916L296.517 609.208L328.92 554.881L300.509 506.527L233.921 505.717L202.086 451.536L142.555 450.812L108.683 507.601ZM145.514 108.026L203.178 108.727L230.775 62.4577L202.503 14.3411L145.942 13.6534L117.794 60.8473L145.514 108.026ZM201.588 122.255L229.309 169.433L201.16 216.627L144.599 215.94L116.327 167.823L143.924 121.554L201.588 122.255ZM434.949 399.068L406.798 446.268L435.067 494.379L490.878 495.057L519.026 447.864L490.754 399.747L434.949 399.068ZM424.148 502.302L396.374 548.868L339.813 548.18L311.541 500.063L339.69 452.869L395.501 453.548L424.148 502.302ZM394.814 440.094L339.009 439.416L310.737 391.299L338.886 344.105L395.447 344.793L423.341 392.266L394.814 440.094ZM628.519 621.253L600.152 668.813L628.205 716.558L684.766 717.246L712.915 670.052L684.643 621.935L628.519 621.253ZM588.703 662.283L532.578 661.601L504.306 613.484L532.455 566.29L589.016 566.978L617.07 614.723L588.703 662.283ZM142.974 438.201L114.702 390.084L142.851 342.89L199.411 343.578L227.684 391.695L199.535 438.888L142.974 438.201ZM213.12 445.075L241.392 493.192L297.953 493.88L326.101 446.686L297.829 398.569L241.268 397.881L213.12 445.075ZM339.656 657.387L311.384 609.27L339.532 562.076L396.093 562.764L424.365 610.881L396.217 658.074L339.656 657.387ZM212.299 776.097L240.571 824.214L297.132 824.902L325.28 777.708L297.008 729.591L240.447 728.904L212.299 776.097ZM144.442 328.186L116.17 280.069L144.318 232.875L200.879 233.563L229.151 281.679L201.003 328.873L144.442 328.186ZM18.867 109.355L47.1391 157.471L103.7 158.159L131.849 110.965L103.577 62.8483L47.0156 62.1607L18.867 109.355ZM437.273 603.614L409.001 555.497L437.149 508.303L493.71 508.991L521.982 557.108L493.834 604.302L437.273 603.614ZM309.915 722.321L338.187 770.438L394.748 771.125L422.896 723.932L394.624 675.815L338.063 675.127L309.915 722.321ZM628.206 607.803L599.934 559.687L628.083 512.493L684.644 513.18L712.916 561.297L684.767 608.491L628.206 607.803ZM340.301 881.433L312.029 833.316L340.178 786.122L396.739 786.81L425.011 834.927L396.862 882.121L340.301 881.433ZM239.906 273.93L211.634 225.813L239.782 178.619L296.343 179.307L324.615 227.424L296.467 274.618L239.906 273.93Z" fill="url(#paint0_linear_200_9902)"/>
<defs>
<linearGradient id="paint0_linear_200_9902" x1="-251.344" y1="33.3847" x2="583.154" y2="1015.35" gradientUnits="userSpaceOnUse">
<stop stop-color="white" stop-opacity="0.6"/>
<stop offset="1" stop-color="white" stop-opacity="0.17"/>
</linearGradient>
</defs>
</svg>
