<svg width="20" height="20" viewBox="0 0 20 20" fill="none" xmlns="http://www.w3.org/2000/svg">
<g id="alarm 1">
<path id="Vector" fill-rule="evenodd" clip-rule="evenodd" d="M5.44194 2.05806C5.68601 2.30213 5.68601 2.69786 5.44194 2.94194L2.94194 5.44194C2.69786 5.68601 2.30213 5.68601 2.05806 5.44194C1.81398 5.19786 1.81398 4.80213 2.05806 4.55806L4.55806 2.05806C4.80213 1.81398 5.19786 1.81398 5.44194 2.05806ZM14.5581 2.05806C14.8022 1.81398 15.1978 1.81398 15.4419 2.05806L17.9419 4.55806C18.186 4.80213 18.186 5.19786 17.9419 5.44194C17.6978 5.68601 17.3022 5.68601 17.0581 5.44194L14.5581 2.94194C14.314 2.69786 14.314 2.30213 14.5581 2.05806ZM10 4.79166C6.66328 4.79166 3.95833 7.49661 3.95833 10.8333C3.95833 14.1701 6.66328 16.875 10 16.875C11.8044 16.875 13.4234 16.0847 14.5314 14.8294C14.7598 14.5707 15.1547 14.546 15.4136 14.7744C15.6724 15.0028 15.697 15.3978 15.4686 15.6566C14.1334 17.1694 12.1779 18.125 10 18.125C5.97292 18.125 2.70833 14.8604 2.70833 10.8333C2.70833 6.80626 5.97292 3.54166 10 3.54166C14.0271 3.54166 17.2917 6.80626 17.2917 10.8333C17.2917 11.1785 17.0118 11.4583 16.6667 11.4583C16.3215 11.4583 16.0417 11.1785 16.0417 10.8333C16.0417 7.49661 13.3367 4.79166 10 4.79166ZM10 6.875C10.3452 6.875 10.625 7.15482 10.625 7.5V10.5744L12.1086 12.0581C12.3527 12.3022 12.3527 12.6978 12.1086 12.9419C11.8645 13.186 11.4688 13.186 11.2247 12.9419L9.55808 11.2752C9.44083 11.1581 9.375 10.9991 9.375 10.8333V7.5C9.375 7.15482 9.65483 6.875 10 6.875Z" fill="#BFBFBF"/>
</g>
</svg>
