<svg width="24" height="19" viewBox="0 0 24 19" fill="none" xmlns="http://www.w3.org/2000/svg">
<path d="M6.53033 0.469669C6.23744 0.176777 5.76256 0.176777 5.46967 0.469669L0.696699 5.24264C0.403805 5.53553 0.403805 6.01041 0.696699 6.3033C0.989592 6.59619 1.46447 6.59619 1.75736 6.3033L6 2.06066L10.2426 6.3033C10.5355 6.59619 11.0104 6.59619 11.3033 6.3033C11.5962 6.01041 11.5962 5.53553 11.3033 5.24264L6.53033 0.469669ZM6.75 18L6.75 1L5.25 1L5.25 18L6.75 18Z" fill="#F9C74B"/>
<path d="M17.4697 18.5303C17.7626 18.8232 18.2374 18.8232 18.5303 18.5303L23.3033 13.7574C23.5962 13.4645 23.5962 12.9896 23.3033 12.6967C23.0104 12.4038 22.5355 12.4038 22.2426 12.6967L18 16.9393L13.7574 12.6967C13.4645 12.4038 12.9896 12.4038 12.6967 12.6967C12.4038 12.9896 12.4038 13.4645 12.6967 13.7574L17.4697 18.5303ZM17.25 1L17.25 18L18.75 18L18.75 1L17.25 1Z" fill="#CCCAB7"/>
</svg>
