<svg width="56" height="48" viewBox="0 0 56 48" fill="none" xmlns="http://www.w3.org/2000/svg">
<g id="right">
<path d="M7.02371 5.85776C7.58708 2.47751 10.5117 0 13.9386 0H32C45.2548 0 56 10.7452 56 24C56 37.2548 45.2548 48 32 48H4.72184C2.25008 48 0.369912 45.7805 0.776266 43.3424L7.02371 5.85776Z" fill="#4B4A49"/>
<path d="M7.02371 5.85776C7.58708 2.47751 10.5117 0 13.9386 0H32C45.2548 0 56 10.7452 56 24C56 37.2548 45.2548 48 32 48H4.72184C2.25008 48 0.369912 45.7805 0.776266 43.3424L7.02371 5.85776Z" fill="black" fill-opacity="0.2"/>
<path d="M7.02371 5.85776C7.58708 2.47751 10.5117 0 13.9386 0H32C45.2548 0 56 10.7452 56 24C56 37.2548 45.2548 48 32 48H4.72184C2.25008 48 0.369912 45.7805 0.776266 43.3424L7.02371 5.85776Z" fill="black" fill-opacity="0.2"/>
</g>
</svg>
