<svg width="48" height="46" viewBox="0 0 48 46" fill="none" xmlns="http://www.w3.org/2000/svg">
<g id="&#208;&#161;&#208;&#187;&#208;&#190;&#208;&#185; 2">
<g id="&#208;&#161;&#208;&#187;&#208;&#190;&#208;&#185; 4">
<path id="Vector" d="M2.98607 29.9255C2.41743 26.1077 2.82933 22.2103 4.18409 18.59C3.32849 17.9085 2.58931 17.0963 1.99471 16.1841C1.28936 15.1031 0.810734 13.8939 0.587031 12.6277C0.247574 13.5029 0.0700549 14.431 0.0628961 15.3679L0 23.0002L0.0613986 30.6317C0.0729428 31.9918 0.442416 33.3256 1.13369 34.5028C1.82496 35.6799 2.81436 36.6601 4.00514 37.3474L8.16152 39.7489C5.36264 37.5194 3.62252 34.2213 2.98607 29.9255Z" fill="white"/>
<path id="Vector_2" d="M15.4991 5.86201C15.5298 5.893 15.5605 5.92326 15.5905 5.95425C17.8576 4.8213 20.2972 4.06076 22.813 3.70265C23.9445 3.54017 25.0863 3.45829 26.2297 3.45764C27.6185 3.4589 29.0045 3.58239 30.3711 3.82663L25.3424 1.02227C24.1392 0.35215 22.7806 0 21.3986 0C20.0166 0 18.6581 0.35215 17.4549 1.02227L12.4854 3.79121C13.6107 4.29277 14.6324 4.9948 15.4991 5.86201Z" fill="white"/>
<path id="Vector_3" d="M28.5813 42.6419C25.6297 43.067 23.0599 43.2736 20.7253 43.2736C17.1978 43.2736 14.2462 42.7962 11.791 41.8228L17.4562 44.9777C18.6594 45.6478 20.0179 45.9999 21.3999 45.9999C22.7819 45.9999 24.1404 45.6478 25.3436 44.9777L29.8976 42.4412C29.4683 42.5106 29.0295 42.5775 28.5813 42.6419Z" fill="white"/>
<path id="Vector_4" d="M47.7889 23.4791C47.2117 19.5375 45.53 15.8329 42.9332 12.7819C43.4791 12.2009 43.9382 11.5461 44.2967 10.8373C44.533 10.3729 44.7253 9.88794 44.871 9.38864C45.3951 7.58721 45.2641 5.73485 44.5715 4.17401C43.9657 2.80946 42.9332 1.66853 41.5352 0.978512C38.1636 -0.685655 33.9263 0.898071 31.972 4.5157C31.9443 4.56662 31.9181 4.61754 31.8912 4.66994C31.8852 4.68174 31.8785 4.69355 31.8725 4.7061C31.7075 5.03035 31.5641 5.36488 31.4434 5.70755C25.9287 4.37042 20.1026 5.1979 15.1952 8.01524C14.9755 7.71443 14.7359 7.42821 14.4779 7.15844C14.4278 7.10604 14.3783 7.05512 14.3282 7.0042C13.3017 5.97051 12.014 5.22558 10.5978 4.84631C8.30288 4.2419 5.8694 4.70683 4.13826 6.30975C3.05904 7.31627 2.36443 8.6584 2.17126 10.1104C2.16527 10.148 2.16002 10.1842 2.15553 10.2248C1.94663 11.9163 2.35545 13.7265 3.38051 15.3073C3.66633 15.7443 3.99216 16.1547 4.3539 16.5331C4.89621 17.1047 5.51756 17.5981 6.1996 17.9988C4.57047 21.6728 4.02173 25.7241 4.61597 29.6907C6.35684 41.441 16.421 42.7509 28.3435 41.0322C30.4016 40.7477 32.4425 40.3536 34.4572 39.8514C43.2364 37.6049 49.2176 33.1209 47.7889 23.4791ZM33.4411 5.56143C35.1326 3.66701 37.7839 2.98215 39.9703 4.06036C42.6225 5.36955 43.5779 8.78201 42.1051 11.6823C42.0848 11.7214 42.0646 11.7605 42.0437 11.7997C41.8774 11.627 41.7087 11.4575 41.5375 11.2912C39.1276 8.94604 36.1989 7.18356 32.9814 6.14222C33.123 5.93995 33.2765 5.74602 33.4411 5.56143ZM6.70427 16.7789C4.45124 14.4173 4.37711 10.875 6.53879 8.87352C8.48558 7.07283 11.5765 7.12965 13.8183 8.88164C10.8334 10.9146 8.4077 13.6466 6.75893 16.832C6.73871 16.8136 6.72224 16.7951 6.70427 16.7759V16.7789ZM27.7588 37.0906C17.3232 38.5924 8.58591 37.9326 7.37591 29.7638C6.16591 21.595 13.6446 13.7561 24.0801 12.2543C34.5156 10.7524 43.956 16.1575 45.166 24.3263C46.376 32.4951 38.1943 35.5895 27.7588 37.0906Z" fill="white"/>
<path id="Vector_5" d="M18.4895 24.9881L16.9736 25.2063L17.195 26.7004L18.7109 26.4821L18.4895 24.9881Z" fill="white"/>
<path id="Vector_6" d="M16.8663 25.2953L15.3496 25.5067L15.5641 27.0015L17.0807 26.7902L16.8663 25.2953Z" fill="white"/>
<path id="Vector_7" d="M18.2669 23.4947L16.751 23.713L16.9724 25.207L18.4883 24.9888L18.2669 23.4947Z" fill="white"/>
<path id="Vector_8" d="M18.5967 26.5793L17.0801 26.7906L17.2946 28.2855L18.8112 28.0741L18.5967 26.5793Z" fill="white"/>
<path id="Vector_9" d="M24.2266 30.0045L22.71 30.2159L22.9244 31.7107L24.4411 31.4993L24.2266 30.0045Z" fill="white"/>
<path id="Vector_10" d="M25.959 31.2876L24.4424 31.499L24.6569 32.9938L26.1735 32.7824L25.959 31.2876Z" fill="white"/>
<path id="Vector_11" d="M27.6048 30.9371L26.0889 31.1553L26.3103 32.6494L27.8262 32.4312L27.6048 30.9371Z" fill="white"/>
<path id="Vector_12" d="M29.1204 30.7189L27.6045 30.9371L27.8259 32.4312L29.3418 32.213L29.1204 30.7189Z" fill="white"/>
<path id="Vector_13" d="M30.2959 29.1571L28.7793 29.3685L28.9938 30.8634L30.5104 30.652L30.2959 29.1571Z" fill="white"/>
<path id="Vector_14" d="M34.5635 22.8283L33.0469 23.0397L33.2614 24.5345L34.778 24.3231L34.5635 22.8283Z" fill="white"/>
<path id="Vector_15" d="M36.0811 22.6166L34.5645 22.828L34.7789 24.3228L36.2956 24.1114L36.0811 22.6166Z" fill="white"/>
<path id="Vector_16" d="M34.3497 21.3321L32.833 21.5435L33.0475 23.0383L34.5641 22.827L34.3497 21.3321Z" fill="white"/>
<path id="Vector_17" d="M34.7784 24.3236L33.2617 24.535L33.4762 26.0299L34.9928 25.8185L34.7784 24.3236Z" fill="white"/>
<path id="Vector_18" d="M34.7077 16.2233C34.8208 15.9089 34.9279 15.5923 35.0177 15.2713C34.9054 15.227 34.7931 15.1835 34.68 15.1422C33.5543 14.7281 32.3743 14.4751 31.1758 14.3909C30.5768 14.3503 29.9752 14.3641 29.3788 14.4322C28.7855 14.4966 28.2041 14.6419 27.6514 14.8639C28.8003 14.8369 29.9486 14.9392 31.074 15.1687C32.1815 15.3871 33.2697 15.6921 34.3281 16.0809C34.4549 16.1276 34.5814 16.1751 34.7077 16.2233Z" fill="white"/>
<path id="Vector_19" d="M39.1352 18.0734C38.956 17.8582 38.7642 17.6534 38.5609 17.4601C38.4111 17.6203 38.2704 17.7856 38.1318 17.9531C38.3565 18.1007 38.5721 18.2579 38.784 18.4232C39.2383 18.774 39.6551 19.1696 40.0277 19.604C39.8249 19.0456 39.5226 18.5273 39.1352 18.0734Z" fill="white"/>
<path id="Vector_20" d="M37.6889 16.7297C37.1718 16.3515 36.6227 16.0179 36.0476 15.7327C35.9809 15.8803 35.912 16.0279 35.8379 16.1755C35.7721 16.3197 35.6971 16.4597 35.6133 16.5946C36.1249 16.819 36.6241 17.065 37.1108 17.3326C37.2821 17.1128 37.4758 16.9107 37.6889 16.7297Z" fill="white"/>
</g>
</g>
</svg>
