<svg width="1440" height="769" viewBox="0 0 1440 769" fill="none" xmlns="http://www.w3.org/2000/svg">
<path opacity="0.2" fill-rule="evenodd" clip-rule="evenodd" d="M225.507 261.782L175.603 262.029L150.397 305.226L175.149 348.081L225.053 347.833L250.259 304.637L225.507 261.782ZM263.295 304.619L232.064 250.546L169.096 250.858L137.361 305.244L165.85 354.569L138.77 400.977L83.1346 401.253L53.8189 451.492L-1.01933 451.764L-28.5587 404.083L-90.8947 404.392L-122.312 458.233L-92.202 510.364L-118.115 554.771L-87.196 608.302L-24.86 607.993L3.66453 559.11L54.1713 558.859L80.8949 605.127L143.231 604.818L174.648 550.978L147.502 503.979L174.289 458.075L223.226 457.832L249.352 503.066L220.702 552.165L251.62 605.697L307.26 605.421L331.823 647.949L304.326 695.072L335.244 748.603L397.58 748.294L428.675 695.006L474.425 694.779L474.253 695.073L505.172 748.605L567.508 748.296L595.845 699.734L652.102 699.455L683.519 645.614L652.6 592.083L596.962 592.359L569.322 544.505L510.546 544.796L486.546 503.243L513.886 456.39L571.091 456.106L599.074 408.151L658.323 407.857L689.741 354.017L658.822 300.485L600.897 300.773L572.046 250.821L509.71 251.13L478.293 304.971L506.487 353.785L479.146 400.641L421.94 400.924L393.415 449.808L343.763 450.054L314.911 400.102L259.273 400.378L233.478 355.717L263.295 304.619ZM425.477 606.186L479.763 605.917L501.716 643.924L478.59 683.555L429.318 683.799L404.879 641.486L425.477 606.186ZM516.487 640.932L562.072 640.706L587.083 597.844L562.765 555.741L513.493 555.986L490.367 595.616L516.514 640.886L516.487 640.932ZM481.106 587.377L501.705 552.077L477.265 509.764L427.993 510.008L403.105 552.659L423.323 587.664L481.106 587.377ZM-21.9848 504.736L2.95137 547.91L51.2221 547.67L76.1099 505.019L51.6707 462.706L2.39818 462.951L-21.9848 504.736ZM-80.1907 512.102L-31.9199 511.863L-6.98381 555.036L-31.3668 596.822L-80.6393 597.066L-105.079 554.753L-80.1907 512.102ZM340.975 641.205L390.939 640.958L415.478 598.904L391.383 557.187L341.939 557.433L317.138 599.935L340.975 641.205ZM317.362 695.054L341.901 653L391.865 652.752L415.962 694.471L391.074 737.122L341.801 737.367L317.362 695.054ZM392.742 545.379L417.28 503.328L392.841 461.015L343.568 461.259L318.68 503.91L342.775 545.626L392.742 545.379ZM332.078 551.116L307.898 509.252L258.626 509.496L233.738 552.147L258.177 594.46L306.927 594.218L332.078 551.116ZM572.005 646.425L597.016 603.563L646.044 603.319L670.483 645.632L645.595 688.283L596.323 688.528L572.005 646.425ZM223.866 361.663L174.593 361.908L149.706 404.559L174.145 446.872L223.417 446.627L248.305 403.976L223.866 361.663ZM259.082 411.582L308.354 411.338L332.794 453.651L307.906 496.302L258.633 496.546L234.194 454.233L259.082 411.582ZM477.719 411.852L428.447 412.096L403.559 454.747L427.998 497.06L477.271 496.815L502.159 454.165L477.719 411.852ZM516.216 262.302L565.489 262.058L589.928 304.371L565.04 347.021L515.768 347.266L491.329 304.953L516.216 262.302ZM138.914 412.18L89.6413 412.424L64.7535 455.075L89.1927 497.388L138.465 497.144L163.353 454.493L138.914 412.18ZM-84.388 415.564L-35.1154 415.32L-10.6762 457.633L-35.564 500.284L-84.8366 500.528L-109.276 458.215L-84.388 415.564ZM515.76 360.215L565.033 359.971L589.472 402.284L564.584 444.935L515.312 445.179L490.873 402.866L515.76 360.215ZM561.45 652.16L512.177 652.404L487.29 695.055L511.729 737.368L561.001 737.124L585.889 694.473L561.45 652.16ZM652.265 311.722L602.993 311.966L578.105 354.617L602.544 396.93L651.817 396.686L676.705 354.035L652.265 311.722ZM87.9001 508.927L137.173 508.683L161.612 550.996L136.724 593.647L87.4515 593.891L63.0123 551.578L87.9001 508.927Z" fill="#D7D7D7"/>
<path opacity="0.2" fill-rule="evenodd" clip-rule="evenodd" d="M923.928 400.744L948.666 444.086L998.156 444.094L1022.96 400.667L998.224 357.325L948.734 357.317L923.928 400.744ZM942.213 455.382L1004.66 455.393L1034 404.021L1085.58 404.029L1113.16 452.351L1170.84 452.361L1195.46 495.485L1167.38 544.63L1195.74 594.314L1168.83 641.419L1112.46 641.409L1081.54 695.538L1112.44 749.677L1170.13 749.687L1198.84 799.995L1260.66 800.006L1291.58 745.877L1262.21 694.419L1289.75 646.207L1261.39 596.524L1288.3 549.421L1336.28 549.429L1365.42 600.476L1420.68 600.486L1448.26 648.808L1510.08 648.819L1541 594.691L1513.11 545.832L1541 497.009L1510.1 442.87L1448.28 442.859L1420.09 492.218L1373.82 492.21L1346.31 443.997L1369.17 403.968L1425.12 403.977L1456.03 349.849L1425.13 295.71L1363.32 295.699L1336.25 343.074L1287.14 343.066L1259.56 294.743L1197.74 294.732L1169.55 344.094L1117.31 344.085L1093.05 301.582L1119.41 255.433L1173.69 255.442L1204.61 201.314L1173.71 147.175L1120.27 147.166L1095.24 103.3L1123.31 54.1557L1092.41 0.0165807L1030.59 0.00585415L1005.09 44.6501L944.889 44.6396L913.97 98.768L944.87 152.907L999.932 152.917L1027.12 200.544L998.265 251.051L1025.84 299.371L999.193 346.028L942.232 346.018L911 400.695L942.213 455.382ZM1085.18 108.283L1035.32 108.274L1011.33 150.283L1035.75 193.077L1084.62 193.085L1109.11 150.206L1085.18 108.283ZM1036.53 96.1067L1012.6 54.1835L1037.09 11.3045L1085.96 11.313L1110.38 54.1064L1086.39 96.1154L1036.53 96.1067ZM1359.76 397.765L1334.99 354.371L1287.33 354.363L1262.92 397.093L1287.43 440.036L1335.61 440.044L1359.76 397.765ZM1345.67 349.277L1369.82 306.998L1418.68 307.006L1443.11 349.8L1418.61 392.679L1370.44 392.67L1345.67 349.277ZM1253.74 489.393L1277.89 447.117L1253.12 403.72L1204.94 403.712L1180.45 446.591L1204.87 489.384L1253.74 489.393ZM1204.18 391.703L1252.52 391.712L1277.27 348.378L1253.11 306.04L1204.25 306.031L1179.75 348.91L1204.18 391.703ZM1430.41 594.931L1455.03 551.84L1503.65 551.848L1528.07 594.642L1503.58 637.52L1454.71 637.512L1430.41 594.931ZM1371.87 589.18L1420.49 589.188L1445.11 546.097L1420.8 503.516L1371.94 503.508L1347.45 546.387L1371.87 589.18ZM1009.92 349.93L1034.35 392.723L1083.21 392.731L1107.7 349.853L1083.28 307.059L1034.41 307.051L1009.92 349.93ZM1119.61 441.055L1095.18 398.262L1119.68 355.383L1168.54 355.391L1192.97 398.185L1168.47 441.064L1119.61 441.055ZM1180.31 544.679L1204.74 587.473L1253.6 587.481L1278.09 544.603L1253.67 501.809L1204.8 501.801L1180.31 544.679ZM1118.9 738.38L1094.47 695.587L1118.96 652.708L1167.83 652.716L1192.25 695.51L1167.76 738.389L1118.9 738.38ZM1011.19 251.1L1035.62 293.894L1084.48 293.902L1108.97 251.023L1084.55 208.23L1035.69 208.221L1011.19 251.1ZM951.323 141.611L926.898 98.8172L951.391 55.9383L1000.25 55.9468L1024.68 98.7402L1000.19 141.619L951.323 141.611ZM1264.88 495.33L1289.3 538.123L1338.17 538.132L1362.66 495.253L1338.24 452.459L1289.37 452.451L1264.88 495.33ZM1203.46 689.029L1179.04 646.235L1203.53 603.356L1252.4 603.365L1276.82 646.158L1252.33 689.037L1203.46 689.029ZM1430.29 497.037L1454.72 539.83L1503.58 539.839L1528.07 496.96L1503.65 454.167L1454.78 454.158L1430.29 497.037ZM1180.87 745.905L1205.29 788.699L1254.16 788.707L1278.65 745.828L1254.23 703.035L1205.36 703.026L1180.87 745.905ZM1118.32 244.135L1093.9 201.342L1118.39 158.463L1167.25 158.471L1191.68 201.265L1167.18 244.144L1118.32 244.135Z" fill="#D7D7D7"/>
</svg>
