<svg width="32" height="32" viewBox="0 0 32 32" fill="none" xmlns="http://www.w3.org/2000/svg">
<g filter="url(#filter0_b_2162_538)">
<path d="M0 6.63273C0 2.96957 2.96957 0 6.63273 0H25.3673C29.0304 0 32 2.96957 32 6.63273V25.3673C32 29.0304 29.0304 32 25.3673 32H6.63273C2.96957 32 0 29.0304 0 25.3673V6.63273Z" fill="url(#paint0_linear_2162_538)"/>
</g>
<path d="M9.07808 14.7256C14.0016 12.5596 20.3727 9.91895 21.2525 9.55339C23.5593 8.59685 24.2672 8.77998 23.9143 10.8987C23.6607 12.4216 22.9296 17.4628 22.3463 20.6008C22.0005 22.4617 21.2243 22.6822 20.0043 21.8771C19.4176 21.4897 16.4557 19.5308 15.8126 19.0709C15.2258 18.6518 14.4165 18.1474 15.4315 17.1543C15.7929 16.8007 18.1603 14.5396 20.005 12.7801C20.2466 12.5491 19.943 12.1694 19.6641 12.3547C17.1777 14.0036 13.7305 16.2921 13.2916 16.5901C12.6288 17.0402 11.9921 17.2465 10.8496 16.9183C9.98601 16.6704 9.14288 16.3745 8.81464 16.2618C7.55029 15.8279 7.85036 15.2658 9.07808 14.7256Z" fill="white"/>
<defs>
<filter id="filter0_b_2162_538" x="-10" y="-10" width="52" height="52" filterUnits="userSpaceOnUse" color-interpolation-filters="sRGB">
<feFlood flood-opacity="0" result="BackgroundImageFix"/>
<feGaussianBlur in="BackgroundImageFix" stdDeviation="5"/>
<feComposite in2="SourceAlpha" operator="in" result="effect1_backgroundBlur_2162_538"/>
<feBlend mode="normal" in="SourceGraphic" in2="effect1_backgroundBlur_2162_538" result="shape"/>
</filter>
<linearGradient id="paint0_linear_2162_538" x1="1.33334" y1="-11.0853" x2="41.9712" y2="17.5089" gradientUnits="userSpaceOnUse">
<stop stop-color="white" stop-opacity="0.6"/>
<stop offset="1" stop-color="white" stop-opacity="0.17"/>
</linearGradient>
</defs>
</svg>
