<svg width="15" height="15" viewBox="0 0 15 15" fill="none" xmlns="http://www.w3.org/2000/svg">
<g id="icon">
<g id="Vector">
<path d="M8 10C8 8.89543 8.89543 8 10 8H13C14.1046 8 15 8.89543 15 10V13C15 14.1046 14.1046 15 13 15H10C8.89543 15 8 14.1046 8 13V10Z" fill="#7D7781"/>
<path d="M8 2C8 0.89543 8.89543 0 10 0H13C14.1046 0 15 0.895431 15 2V5C15 6.10457 14.1046 7 13 7H10C8.89543 7 8 6.10457 8 5V2Z" fill="#7D7781"/>
<path d="M0 2C0 0.89543 0.895431 0 2 0H5C6.10457 0 7 0.895431 7 2V5C7 6.10457 6.10457 7 5 7H2C0.89543 7 0 6.10457 0 5V2Z" fill="#7D7781"/>
<path d="M0 10C0 8.89543 0.895431 8 2 8H5C6.10457 8 7 8.89543 7 10V13C7 14.1046 6.10457 15 5 15H2C0.89543 15 0 14.1046 0 13V10Z" fill="#7D7781"/>
</g>
</g>
</svg>
