<svg width="14" height="14" viewBox="0 0 14 14" fill="none" xmlns="http://www.w3.org/2000/svg">
<g id="icon">
<path id="Vector" d="M10.8176 0H3.18236C1.42565 0.00298317 0.00298253 1.42595 0 3.18304V8.2753C0.00298253 9.78777 1.06476 11.0884 2.5441 11.3927V13.3646C2.5441 13.7166 2.82744 14 3.17938 14C3.30464 14 3.42693 13.9642 3.53132 13.8926L7.19088 11.4554H10.8176C12.5744 11.4524 13.997 10.0294 14 8.27232V3.18304C13.997 1.42595 12.5714 0.00298317 10.8176 0ZM9.5441 7.63691H4.45292C4.10098 7.63691 3.81764 7.35052 3.81764 7.00149C3.81764 6.65246 4.10396 6.36608 4.45292 6.36608H9.5441C9.89604 6.36608 10.1794 6.65246 10.1794 7.00149C10.1794 7.35052 9.89604 7.63691 9.5441 7.63691ZM10.8176 5.09227H3.18236C2.83042 5.09227 2.54708 4.80588 2.54708 4.45685C2.54708 4.10782 2.8334 3.82144 3.18236 3.82144H10.8176C11.1696 3.82144 11.4529 4.10782 11.4529 4.45685C11.4529 4.80588 11.1666 5.09227 10.8176 5.09227Z" fill="#FF9839"/>
</g>
</svg>
